<?xml version="1.0" encoding="UTF-8"?>
<svg id="Camada_2" data-name="Camada 2" xmlns="http://www.w3.org/2000/svg" viewBox="0 0 1322.88 1131.26">
  <defs>
    <style>
      .cls-1 {
        fill: #000;
      }
      @media (prefers-color-scheme: dark) {
        .cls-1 {
          fill: #fff;
        }
      }
      .cls-2 {
        fill: #bcec41;
      }
    </style>
  </defs>
  <g id="OBJECTS">
    <g>
      <path class="cls-1" d="M1029.02,700.66l-209.48,362.83c-17.39,30.12,4.35,67.77,39.13,67.77h418.96c34.78,0,56.52-37.65,39.13-67.77l-209.48-362.83c-17.39-30.12-60.87-30.12-78.26,0Z"/>
      <path class="cls-2" d="M980.1,580.11l-294.56,510.22c-14.61,25.31-41.62,40.91-70.85,40.91h-71.94c-13.87,0-22.53-15.01-15.6-27.02l209.16-362.31c15.29-26.48,6.21-60.34-20.27-75.62h0c-26.48-15.28-60.33-6.21-75.62,20.26l-251.55,435.68c-3.22,5.57-9.16,9.01-15.6,9.01h-78.4c-13.87,0-22.53-15.01-15.6-27.02l271.14-469.59c15.29-26.48,6.21-60.34-20.26-75.62h0c-26.48-15.28-60.33-6.21-75.61,20.26l-313.45,542.96c-3.22,5.57-9.16,9.01-15.6,9.01H18.04c-13.87,0-22.53-15.01-15.6-27.02L624.37,27.16c20.92-36.22,73.2-36.22,94.11,0l261.63,453.12c17.83,30.89,17.83,68.94,0,99.83Z"/>
    </g>
  </g>
</svg>